<mxfile host="drawio-plugin" modified="2023-10-23T19:43:28.077Z" agent="5.0 (Windows NT 10.0; Win64; x64) AppleWebKit/537.36 (KHTML, like Gecko) Chrome/111.0.0.0 Safari/537.36" version="20.5.3" etag="tu_wwyQ6l8OStI-7RVmt" type="embed"><diagram id="rUFIl1jtzihbCrWbDbbw" name="Page-1"><mxGraphModel dx="587" dy="379" grid="1" gridSize="10" guides="1" tooltips="1" connect="1" arrows="1" fold="1" page="1" pageScale="1" pageWidth="850" pageHeight="1100" math="0" shadow="0"><root><mxCell id="0"/><mxCell id="1" parent="0"/><mxCell id="2" value="" style="endArrow=classic;startArrow=classic;html=1;rounded=0;" edge="1" parent="1"><mxGeometry width="50" height="50" relative="1" as="geometry"><mxPoint x="400" y="360" as="sourcePoint"/><mxPoint x="400" y="120" as="targetPoint"/></mxGeometry></mxCell><mxCell id="4" value="" style="endArrow=classic;startArrow=classic;html=1;rounded=0;" edge="1" parent="1"><mxGeometry width="50" height="50" relative="1" as="geometry"><mxPoint x="270" y="240" as="sourcePoint"/><mxPoint x="520" y="240" as="targetPoint"/><Array as="points"/></mxGeometry></mxCell><mxCell id="5" value="-1" style="text;strokeColor=none;fillColor=none;spacingLeft=4;spacingRight=4;overflow=hidden;rotatable=0;points=[[0,0.5],[1,0.5]];portConstraint=eastwest;fontSize=12;" vertex="1" parent="1"><mxGeometry x="340" y="240" width="30" height="30" as="geometry"/></mxCell><mxCell id="6" value="0" style="text;strokeColor=none;fillColor=none;spacingLeft=4;spacingRight=4;overflow=hidden;rotatable=0;points=[[0,0.5],[1,0.5]];portConstraint=eastwest;fontSize=12;" vertex="1" parent="1"><mxGeometry x="380" y="240" width="30" height="30" as="geometry"/></mxCell><mxCell id="7" value="1" style="text;strokeColor=none;fillColor=none;spacingLeft=4;spacingRight=4;overflow=hidden;rotatable=0;points=[[0,0.5],[1,0.5]];portConstraint=eastwest;fontSize=12;" vertex="1" parent="1"><mxGeometry x="430" y="240" width="30" height="30" as="geometry"/></mxCell><mxCell id="8" value="2" style="text;strokeColor=none;fillColor=none;spacingLeft=4;spacingRight=4;overflow=hidden;rotatable=0;points=[[0,0.5],[1,0.5]];portConstraint=eastwest;fontSize=12;" vertex="1" parent="1"><mxGeometry x="470" y="240" width="30" height="30" as="geometry"/></mxCell><mxCell id="9" value="3" style="text;strokeColor=none;fillColor=none;spacingLeft=4;spacingRight=4;overflow=hidden;rotatable=0;points=[[0,0.5],[1,0.5]];portConstraint=eastwest;fontSize=12;" vertex="1" parent="1"><mxGeometry x="510" y="240" width="30" height="30" as="geometry"/></mxCell><mxCell id="10" value="-2" style="text;strokeColor=none;fillColor=none;spacingLeft=4;spacingRight=4;overflow=hidden;rotatable=0;points=[[0,0.5],[1,0.5]];portConstraint=eastwest;fontSize=12;" vertex="1" parent="1"><mxGeometry x="300" y="240" width="30" height="30" as="geometry"/></mxCell><mxCell id="11" value="-3" style="text;strokeColor=none;fillColor=none;spacingLeft=4;spacingRight=4;overflow=hidden;rotatable=0;points=[[0,0.5],[1,0.5]];portConstraint=eastwest;fontSize=12;" vertex="1" parent="1"><mxGeometry x="260" y="240" width="30" height="30" as="geometry"/></mxCell><mxCell id="12" value="-1" style="text;strokeColor=none;fillColor=none;spacingLeft=4;spacingRight=4;overflow=hidden;rotatable=0;points=[[0,0.5],[1,0.5]];portConstraint=eastwest;fontSize=12;" vertex="1" parent="1"><mxGeometry x="370" y="270" width="30" height="30" as="geometry"/></mxCell><mxCell id="13" value="-2" style="text;strokeColor=none;fillColor=none;spacingLeft=4;spacingRight=4;overflow=hidden;rotatable=0;points=[[0,0.5],[1,0.5]];portConstraint=eastwest;fontSize=12;" vertex="1" parent="1"><mxGeometry x="370" y="310" width="30" height="30" as="geometry"/></mxCell><mxCell id="14" value="-3" style="text;strokeColor=none;fillColor=none;spacingLeft=4;spacingRight=4;overflow=hidden;rotatable=0;points=[[0,0.5],[1,0.5]];portConstraint=eastwest;fontSize=12;" vertex="1" parent="1"><mxGeometry x="370" y="350" width="30" height="30" as="geometry"/></mxCell><mxCell id="15" value="1" style="text;strokeColor=none;fillColor=none;spacingLeft=4;spacingRight=4;overflow=hidden;rotatable=0;points=[[0,0.5],[1,0.5]];portConstraint=eastwest;fontSize=12;" vertex="1" parent="1"><mxGeometry x="370" y="180" width="30" height="30" as="geometry"/></mxCell><mxCell id="16" value="2" style="text;strokeColor=none;fillColor=none;spacingLeft=4;spacingRight=4;overflow=hidden;rotatable=0;points=[[0,0.5],[1,0.5]];portConstraint=eastwest;fontSize=12;" vertex="1" parent="1"><mxGeometry x="370" y="140" width="30" height="30" as="geometry"/></mxCell><mxCell id="17" value="3" style="text;strokeColor=none;fillColor=none;spacingLeft=4;spacingRight=4;overflow=hidden;rotatable=0;points=[[0,0.5],[1,0.5]];portConstraint=eastwest;fontSize=12;" vertex="1" parent="1"><mxGeometry x="370" y="100" width="30" height="30" as="geometry"/></mxCell><mxCell id="18" value="" style="endArrow=none;dashed=1;html=1;dashPattern=1 3;strokeWidth=2;rounded=0;" edge="1" parent="1"><mxGeometry width="50" height="50" relative="1" as="geometry"><mxPoint x="320" y="116" as="sourcePoint"/><mxPoint x="367.87" y="115.5" as="targetPoint"/><Array as="points"><mxPoint x="357.87" y="115.22000000000003"/></Array></mxGeometry></mxCell><mxCell id="19" value="" style="endArrow=none;dashed=1;html=1;dashPattern=1 3;strokeWidth=2;rounded=0;startArrow=none;" edge="1" parent="1"><mxGeometry width="50" height="50" relative="1" as="geometry"><mxPoint x="319" y="120" as="sourcePoint"/><mxPoint x="319" y="234" as="targetPoint"/><Array as="points"/></mxGeometry></mxCell><mxCell id="20" value="( 3, -2 )" style="text;strokeColor=none;fillColor=none;spacingLeft=4;spacingRight=4;overflow=hidden;rotatable=0;points=[[0,0.5],[1,0.5]];portConstraint=eastwest;fontSize=12;" vertex="1" parent="1"><mxGeometry x="270" y="100" width="50" height="30" as="geometry"/></mxCell></root></mxGraphModel></diagram></mxfile>